# xmcd
#
# Track frame offsets: 
#        150
#        10851
#        24525
#        43111
#        68628
#        84960
#        98269
#        111353
#        123197
#        135424
#        148937
#        175883
#        187417
#        199013
#        212000
#        231100
#        243232
#        261290
#        274282
#        286420
#        307176
#        333290
#
# Disc length: 4707 seconds
#
# Revision: 0
# Processed by: cddbd v1.5.2PL0 Copyright (c) Steve Scherf et al.
# Submitted via: ExactAudioCopy v0.99pb5
#
DISCID=41126116
DTITLE=Various Artist - A Complete Introduction To CHESS,CHECKER and CADET  Cd4
DYEAR=2010
DGENRE=Soul
TTITLE0=Etta James/Tell Mama
TTITLE1=Koko Taylor/Wang Dang Doodle
TTITLE2=Howlin' Wolf/Evil
TTITLE3=Rotary Connection/I Am The Black Gold Of The Sun
TTITLE4=Muddy Waters/Tom Cat
TTITLE5=Marlena Shaw/California Soul
TTITLE6=The Radiants/Hold On
TTITLE7=The Valentinos/Sweeter Than The Day Before
TTITLE8=Denise La Salle/ A Love Reputation
TTITLE9=Dorothy Ashby/Afro-Harping
TTITLE10=Marlena Shaw/Woman Of The Ghetto
TTITLE11=Irma Thomas/Good To Me
TTITLE12=Etta James/I'd Rather Go Blind
TTITLE13=Laura Lee/Dirty Man
TTITLE14=Terry Callier/Ordinary Joe
TTITLE15=The Soulful Strings/Burning Spear
TTITLE16=Solomon Burke/Let Me Wrap My Arms Around You
TTITLE17=Gene Chandler/To Be A Lover
TTITLE18=Pigmeat Markham/Here Comes The Judge
TTITLE19=The Dells/Give Your Baby A Standing Ovation
TTITLE20=Solomon Burke/You And Your Baby Blues
TTITLE21=Chuck Berry/My Ding-A-Ling
EXTD=
EXTT0=
EXTT1=
EXTT2=
EXTT3=
EXTT4=
EXTT5=
EXTT6=
EXTT7=
EXTT8=
EXTT9=
EXTT10=
EXTT11=
EXTT12=
EXTT13=
EXTT14=
EXTT15=
EXTT16=
EXTT17=
EXTT18=
EXTT19=
EXTT20=
EXTT21=
PLAYORDER=
